<?xml version="1.0" encoding="utf-8"?>
<!-- Generator: Adobe Illustrator 25.2.0, SVG Export Plug-In . SVG Version: 6.00 Build 0)  -->
<svg version="1.1" id="Layer_1" xmlns="http://www.w3.org/2000/svg" xmlns:xlink="http://www.w3.org/1999/xlink" x="0px" y="0px"
     width="160px" height="58.6667px"  viewBox="0 0 150 55" style="enable-background:new 0 0 150 55;" xml:space="preserve">
<style type="text/css">
	.st0{fill:#FFFFFF;}
</style>
<g>
	<g>
		<path class="st0" d="M52.5,26.9l-15.7,0.1c0,0,0,0.1,0,0.1c0,0.1,0,0.2,0,0.3c0,0,0,0,0,0.1c0,0.1,0,0.2,0,0.3c0,0,0,0,0,0
			L52.4,29l0.1,0C52.6,28.3,52.6,27.7,52.5,26.9L52.5,26.9z"/>
		<path class="st0" d="M17.9,51.5L17.9,51.5c0.8,0.3,1.6,0.5,2.4,0.7h0L23,41.5c-0.4-0.3-0.8-0.7-1.1-1L17.9,51.5z"/>
		<path class="st0" d="M6.9,43.9C6.9,43.9,6.9,44,6.9,43.9C7,44,7,44,7,44.1c0.5,0.5,0.9,1,1.4,1.5c0.1,0,0.1,0.1,0.2,0.2
			c0,0,0,0,0,0l9.7-10c-0.2-0.4-0.3-0.7-0.5-1.1L6.9,43.9z"/>
		<path class="st0" d="M22.3,52.7L22.3,52.7C22.3,52.7,22.3,52.7,22.3,52.7c0.1,0,0.1,0,0.2,0c0.7,0.1,1.3,0.2,2,0.2
			c0.1,0,0.2,0,0.2,0h0l0.5-7.8L24.8,53l0.7-9.8c-0.5-0.3-1-0.6-1.4-0.9L22.3,52.7z"/>
		<path class="st0" d="M13.8,49.7L13.8,49.7c0.1,0,0.1,0.1,0.2,0.1c0,0,0,0,0,0c0.7,0.4,1.3,0.7,2,1v0l5-11.2
			c-0.3-0.3-0.6-0.7-0.9-1.1L13.8,49.7z"/>
		<path class="st0" d="M10.1,47.1C10.1,47.1,10.1,47.1,10.1,47.1c0.1,0.1,0.1,0.1,0.2,0.1c0.5,0.4,1.1,0.8,1.6,1.2h0
			c0.1,0,0.1,0.1,0.2,0.1c0,0,0,0,0,0l7.4-10.9c-0.2-0.3-0.5-0.7-0.7-1.1L10.1,47.1z"/>
		<path class="st0" d="M1.2,31.8L1.2,31.8c0,0.1,0,0.1,0,0.2c0,0,0,0,0,0c0.1,0.7,0.3,1.5,0.5,2.2L16.6,30c0-0.3-0.1-0.7-0.1-1
			L1.2,31.8z"/>
		<path class="st0" d="M4.3,40.3L4.3,40.3c0,0.1,0.1,0.1,0.1,0.2c0,0,0,0,0,0c0.4,0.6,0.7,1.1,1.1,1.7h0c0,0.1,0.1,0.1,0.1,0.2
			c0,0,0,0,0,0l11.8-8.6c-0.1-0.3-0.2-0.7-0.4-1L4.3,40.3z"/>
		<path class="st0" d="M16.7,30.8L2.4,36.2h0c0.3,0.8,0.6,1.5,1,2.3l0,0l13.6-6.6C16.8,31.5,16.8,31.2,16.7,30.8"/>
		<path class="st0" d="M46.5,43.7C46.6,43.7,46.6,43.7,46.5,43.7c0.1-0.1,0.1-0.1,0.1-0.2c0.4-0.5,0.8-1.1,1.2-1.6
			c0-0.1,0.1-0.1,0.1-0.2c0,0,0,0,0,0l-1.3-0.9c-0.6,0.5-1.2,1-1.8,1.5L46.5,43.7z"/>
		<path class="st0" d="M49.1,40L49.1,40c0-0.1,0.1-0.1,0.1-0.2c0,0,0,0,0,0c0.4-0.7,0.7-1.3,1-2l-0.7-0.3c-0.5,0.7-0.9,1.3-1.5,1.9
			L49.1,40z"/>
		<path class="st0" d="M16.4,27.4c0,0,0-0.1,0-0.1h0L0.7,27.3c0,0.1,0,0.1,0,0.2c0,0.7,0.1,1.4,0.1,2h0c0,0.1,0,0.1,0,0.2v0
			l15.5-1.6c0-0.2,0-0.4,0-0.7C16.4,27.5,16.4,27.4,16.4,27.4"/>
		<path class="st0" d="M43.4,46.9C43.4,46.9,43.4,46.9,43.4,46.9c0.1-0.1,0.1-0.1,0.2-0.1c0.5-0.4,1-0.9,1.5-1.4
			c0,0,0.1-0.1,0.1-0.1c0,0,0,0,0,0l-1.9-1.9c-0.7,0.4-1.4,0.7-2.1,1L43.4,46.9z"/>
		<path class="st0" d="M34.4,45.6c-0.3,0-0.7,0-1,0l2.2,5.8l0,0c0.8-0.3,1.5-0.6,2.3-1v0l-2.4-4.9C35.2,45.6,34.8,45.6,34.4,45.6"/>
		<path class="st0" d="M26.8,53c0.1,0,0.2,0,0.2,0c0.7,0,1.4,0,2-0.1c0.1,0,0.1,0,0.2,0h0l-0.9-8.3c-0.6-0.2-1.1-0.4-1.7-0.7
			L26.8,53z"/>
		<path class="st0" d="M29.9,45l1.4,7.6c0.1,0,0.1,0,0.2,0c0,0,0,0,0,0c0.7-0.1,1.5-0.3,2.2-0.5v0l-1.9-6.6
			C31.2,45.3,30.5,45.2,29.9,45"/>
		<path class="st0" d="M39.7,49.5L39.7,49.5c0.1,0,0.1-0.1,0.2-0.1c0,0,0,0,0,0c0.6-0.4,1.1-0.7,1.7-1.1l0,0c0.1,0,0.1-0.1,0.1-0.1
			c0,0,0,0,0,0l-2.3-3.2c-0.7,0.2-1.4,0.4-2.2,0.5L39.7,49.5z"/>
		<path class="st0" d="M4.1,14.4L4.1,14.4c0,0.1-0.1,0.1-0.1,0.2c0,0,0,0,0,0c-0.4,0.7-0.7,1.3-1,2l0,0l14,6.3
			c0.1-0.3,0.2-0.7,0.3-1L4.1,14.4z"/>
		<path class="st0" d="M44.1,12.3l2.2-1.9v0c0,0,0,0,0,0c0,0-0.1-0.1-0.1-0.1c-0.4-0.5-0.9-1-1.4-1.5c0,0-0.1-0.1-0.1-0.1
			c0,0,0,0,0,0v0l-2.5,2.6C42.7,11.5,43.4,11.9,44.1,12.3"/>
		<path class="st0" d="M48.9,14L48.9,14c0,0,0-0.1-0.1-0.1c0,0,0,0,0,0v0c-0.3-0.6-0.7-1.1-1.1-1.7h0c0-0.1-0.1-0.1-0.1-0.2
			c0,0,0,0,0,0v0l-2,1.4c0.6,0.5,1.2,1,1.8,1.6L48.9,14z"/>
		<path class="st0" d="M39.4,4.6L39.4,4.6c-0.1,0-0.1-0.1-0.2-0.1c0,0,0,0,0,0c-0.7-0.4-1.3-0.7-2-1l0,0l-2.7,6c0.7,0,1.4,0,2.1,0.1
			L39.4,4.6z"/>
		<path class="st0" d="M50.9,18.1L50.9,18.1c-0.3-0.8-0.6-1.5-1-2.3l0,0l-1.2,0.6c0.5,0.6,1,1.3,1.4,2L50.9,18.1z"/>
		<path class="st0" d="M52.1,22.5c0-0.1,0-0.1,0-0.2c0,0,0,0,0,0c-0.1-0.7-0.3-1.5-0.5-2.2h0l-0.6,0.2c0.3,0.7,0.6,1.5,0.9,2.3
			L52.1,22.5z"/>
		<path class="st0" d="M35.3,2.8L35.3,2.8c-0.8-0.3-1.6-0.5-2.4-0.7l0,0l-1.9,7.8c0.6-0.1,1.3-0.2,1.9-0.3L35.3,2.8z"/>
		<path class="st0" d="M43.1,7.2C43.1,7.2,43.1,7.2,43.1,7.2C43,7.1,43,7.1,42.9,7.1c-0.5-0.4-1.1-0.8-1.6-1.2h0
			c-0.1,0-0.1-0.1-0.2-0.1c0,0,0,0,0,0l-2.8,4.2c0.7,0.2,1.4,0.4,2.1,0.6L43.1,7.2z"/>
		<path class="st0" d="M13.5,4.8c0,0-0.1,0.1-0.1,0.1c0,0,0,0,0,0v0c-0.6,0.4-1.2,0.7-1.7,1.1l0,0c0,0-0.1,0.1-0.2,0.1c0,0,0,0,0,0
			l8.1,11.2c0.2-0.3,0.5-0.7,0.7-1L13.5,4.8z"/>
		<path class="st0" d="M6.7,10.7C6.7,10.7,6.7,10.7,6.7,10.7c-0.1,0.1-0.1,0.1-0.1,0.2c-0.4,0.5-0.8,1.1-1.2,1.6l0,0
			c0,0.1-0.1,0.1-0.1,0.2c0,0,0,0,0,0v0l12.4,8.4c0.1-0.3,0.3-0.7,0.4-1L6.7,10.7z"/>
		<path class="st0" d="M19,18.2L9.8,7.5c0,0,0,0,0,0c0,0-0.1,0.1-0.1,0.1C9.2,8,8.7,8.5,8.2,9c0,0-0.1,0.1-0.1,0.1c0,0,0,0,0,0v0
			l10.4,10.1C18.6,18.9,18.8,18.6,19,18.2"/>
		<path class="st0" d="M21.9,1.7L21.9,1.7c-0.1,0-0.1,0-0.2,0c0,0,0,0,0,0c-0.7,0.1-1.5,0.3-2.2,0.5v0l3.3,11.5
			c0.4-0.3,0.8-0.6,1.2-0.9L21.9,1.7z"/>
		<path class="st0" d="M26.4,1.3l-2.5,0.1L25,12.1c0.5-0.3,0.9-0.5,1.4-0.8L26.4,1.3z"/>
		<path class="st0" d="M17.6,2.9L17.6,2.9c-0.8,0.3-1.5,0.6-2.3,1v0L21,15.5c0.3-0.3,0.6-0.7,0.9-1L17.6,2.9z"/>
		<path class="st0" d="M30.9,1.6L30.9,1.6C30.9,1.6,30.8,1.6,30.9,1.6c-0.1,0-0.1,0-0.2,0c-0.7-0.1-1.3-0.2-2-0.2l-0.3,0l-0.6,9.4
			c0.5-0.2,1.1-0.4,1.7-0.6L30.9,1.6z"/>
		<path class="st0" d="M35.1,32.9l11.6,7.9c0.5-0.4,0.9-0.9,1.4-1.4l-12.6-7.2C35.4,32.4,35.2,32.7,35.1,32.9"/>
		<path class="st0" d="M18.1,21.4l-0.5-0.4c-0.1,0.3-0.2,0.5-0.3,0.8l0.4,0.2C17.9,21.9,18,21.7,18.1,21.4"/>
		<path class="st0" d="M17.3,23L17,22.9c-0.1,0.3-0.1,0.5-0.2,0.8l0.2,0.1C17.1,23.5,17.2,23.2,17.3,23"/>
		<path class="st0" d="M51,35.9L51,35.9c0.3-0.8,0.5-1.6,0.7-2.4l-0.2-0.1c-0.3,0.8-0.6,1.5-1,2.3L51,35.9z"/>
		<path class="st0" d="M52.1,31.5l-15.4-2.6c0,0.3-0.1,0.5-0.2,0.8l15,3.8C51.5,33.4,51.8,32.7,52.1,31.5L52.1,31.5z"/>
		<path class="st0" d="M18.7,20.7c0.2-0.2,0.4-0.4,0.5-0.6l-0.8-0.8c-0.1,0.3-0.3,0.5-0.4,0.8L18.7,20.7z"/>
		<path class="st0" d="M33.9,34.3l9.3,9c0.6-0.3,1.1-0.7,1.6-1l-10.4-8.6C34.3,33.9,34.1,34.1,33.9,34.3"/>
		<path class="st0" d="M35.9,31.3C35.9,31.3,35.9,31.3,35.9,31.3l13.6,6.1c0.4-0.6,0.7-1.1,1-1.7l-14.3-5.1
			C36.1,30.8,36,31.1,35.9,31.3"/>
		<path class="st0" d="M20,19.4c0.2-0.2,0.4-0.3,0.6-0.5l-1.1-1.5c-0.2,0.3-0.4,0.5-0.5,0.8L20,19.4C20,19.4,20,19.4,20,19.4"/>
		<path class="st0" d="M22.1,18L21,15.5c-0.2,0.3-0.5,0.5-0.7,0.8l1.2,2C21.7,18.2,21.9,18.1,22.1,18"/>
		<path class="st0" d="M32.6,35.4l6.9,9.5c0.6-0.2,1.2-0.4,1.7-0.6l-8-9.4C33,35.1,32.8,35.3,32.6,35.4"/>
		<path class="st0" d="M19.5,34.5l-1.2,1.2c0.2,0.3,0.3,0.6,0.5,0.9l1.3-1.6C19.9,34.9,19.7,34.7,19.5,34.5"/>
		<path class="st0" d="M26.6,37.4c-0.2,0-0.5,0-0.7,0l-0.3,3.9l-0.1,1.9c0.4,0.2,0.8,0.5,1.3,0.7L26.6,37.4
			C26.7,37.4,26.6,37.4,26.6,37.4"/>
		<path class="st0" d="M18.3,33.2l-0.8,0.6c0.1,0.3,0.2,0.6,0.3,0.9l1-0.8C18.7,33.6,18.5,33.4,18.3,33.2"/>
		<path class="st0" d="M22.4,36.5L21,39.6c0.3,0.3,0.5,0.6,0.8,0.9l1.3-3.7C22.9,36.7,22.7,36.6,22.4,36.5"/>
		<path class="st0" d="M20.9,35.6l-1.4,2c0.2,0.3,0.4,0.6,0.6,0.9l1.4-2.5C21.3,35.9,21.1,35.8,20.9,35.6"/>
		<path class="st0" d="M27.7,37.3l0.7,7.3c0.5,0.2,1,0.3,1.5,0.5l-1.4-7.8C28.2,37.3,27.9,37.3,27.7,37.3"/>
		<path class="st0" d="M16.4,28.2L16.4,28.2c0,0.3,0,0.5,0,0.8l0.1,0C16.5,28.8,16.5,28.5,16.4,28.2"/>
		<path class="st0" d="M31.8,36c-0.2,0.1-0.5,0.3-0.7,0.4l4.5,9.2c0.6,0,1.2-0.1,1.7-0.2L31.8,36z"/>
		<path class="st0" d="M24.1,37.1L23,41.5c0.3,0.3,0.7,0.5,1,0.8l0.9-5.1C24.6,37.2,24.4,37.1,24.1,37.1"/>
		<path class="st0" d="M16.8,30L16.6,30c0,0.3,0.1,0.5,0.1,0.8l0.3-0.1C16.9,30.5,16.9,30.2,16.8,30"/>
		<path class="st0" d="M17.4,31.6l-0.5,0.2c0.1,0.3,0.1,0.6,0.2,0.8l0.7-0.4C17.7,32.1,17.5,31.9,17.4,31.6"/>
		<path class="st0" d="M29.4,37l2.4,8.4c0.5,0.1,1.1,0.1,1.7,0.2l-3.3-8.8C29.9,36.8,29.7,36.9,29.4,37"/>
		<path class="st0" d="M23.8,17.3l-1-3.6c-0.3,0.3-0.6,0.5-0.9,0.8l1.1,3C23.3,17.5,23.5,17.4,23.8,17.3"/>
		<path class="st0" d="M24.8,17.1c0.1,0,0.3,0,0.4-0.1c0.1,0,0.3,0,0.4-0.1L25,12.1c-0.4,0.2-0.7,0.5-1.1,0.7L24.8,17.1L24.8,17.1z"
			/>
		<path class="st0" d="M31.6,18.3c0.1,0.1,0.2,0.1,0.3,0.2c0.1,0.1,0.2,0.1,0.3,0.2c0,0,0,0,0,0l5.9-8.8c-0.6-0.1-1.1-0.2-1.7-0.3
			L31.6,18.3C31.6,18.3,31.6,18.3,31.6,18.3"/>
		<polyline class="st0" points="32.3,18.7 32.3,18.7 32.3,18.7 32.3,18.7 		"/>
		<path class="st0" d="M33.1,19.3C33.1,19.3,33.2,19.3,33.1,19.3c0.2,0.1,0.3,0.2,0.4,0.3c0,0,0,0,0.1,0.1c0.1,0.1,0.1,0.1,0.2,0.2
			l8.3-8.6c-0.6-0.3-1.1-0.5-1.7-0.7L33.1,19.3z"/>
		<path class="st0" d="M34.4,20.6c0.2,0.2,0.3,0.4,0.4,0.6c0,0,0,0,0,0l10.7-7.8c-0.5-0.4-1-0.8-1.6-1.1L34.4,20.6
			C34.4,20.6,34.4,20.6,34.4,20.6"/>
		<path class="st0" d="M35.4,22c0.1,0.2,0.3,0.5,0.4,0.7l12.9-6.3c-0.4-0.5-0.8-1-1.3-1.5L35.4,22C35.4,22,35.4,22,35.4,22"/>
		<path class="st0" d="M36.4,24.3l14.5-4.2c-0.3-0.6-0.6-1.2-0.9-1.8l-13.8,5.2C36.3,23.8,36.4,24.1,36.4,24.3"/>
		<path class="st0" d="M26.6,16.9C26.6,16.9,26.6,16.9,26.6,16.9C26.6,16.9,26.6,16.9,26.6,16.9c0.2,0,0.3,0,0.5,0
			c0.1,0,0.1,0,0.2,0c0,0,0.1,0,0.1,0l0.4-6.2c-0.4,0.2-0.9,0.4-1.3,0.6L26.6,16.9C26.5,16.9,26.6,16.9,26.6,16.9"/>
		<path class="st0" d="M28.3,17.1L28.3,17.1c0.3,0,0.5,0.1,0.8,0.2l1.8-7.4c-0.5,0.1-1,0.2-1.5,0.4L28.3,17.1z"/>
		<path class="st0" d="M30,17.5c0.2,0.1,0.5,0.2,0.7,0.3v0l3.7-8.3h0c-0.5,0-1.1,0-1.6,0.1L30,17.5L30,17.5z"/>
		<path class="st0" d="M36.8,26.1l15.5-1.6c-0.1-0.7-0.3-1.3-0.5-2l-15.1,2.8C36.7,25.6,36.7,25.8,36.8,26.1"/>
		<path class="st0" d="M16.4,26.4L16.4,26.4L16.4,26.4L16.4,26.4L16.4,26.4c0-0.3,0.1-0.7,0.1-1l0,0c0-0.3,0.1-0.5,0.2-0.8l-0.1,0
			c0,0,0.2-0.9,0.2-1l0,0l0,0L2.2,18.5l0,0c-0.3,0.8-0.5,1.6-0.7,2.4h0l15.1,3.8c0,0.3-0.1,0.6-0.1,0.8L1.1,22.9c0,0,0,0,0,0.1
			c0,0,0,0.1,0,0.1c-0.1,0.7-0.2,1.3-0.2,2c0,0.1,0,0.1,0,0.2l0,0.1L16.4,26.4L16.4,26.4z"/>
	</g>
	<g>
		<g>
			<path class="st0" d="M66.5,41.1h-4v3.4h-0.8v-7.3h0.8v3.1h4v-3.1h0.9v7.3h-0.9V41.1z"/>
			<path class="st0" d="M72.5,37.1c2.1,0,3.8,1.5,3.8,3.8c0,2.3-1.7,3.8-3.8,3.8c-2.1,0-3.8-1.5-3.8-3.8
				C68.8,38.6,70.4,37.1,72.5,37.1z M72.5,43.9c1.6,0,2.9-1.1,2.9-3c0-1.8-1.3-3-2.9-3c-1.6,0-2.9,1.1-2.9,3
				C69.6,42.7,70.9,43.9,72.5,43.9z"/>
			<path class="st0" d="M83.8,44.5c0-0.8,0-1,0-1h0c-0.4,0.4-1.3,1.2-2.7,1.2c-2.1,0-3.7-1.5-3.7-3.8c0-2.3,1.6-3.8,3.8-3.8
				c1.7,0,2.8,0.9,3.3,2l-0.8,0.2c-0.2-0.4-0.9-1.4-2.5-1.4c-1.7,0-2.9,1.1-2.9,3c0,1.8,1.3,3,2.9,3c1.4,0,2.3-0.8,2.6-1.3v-1h-2.2
				v-0.8h2.9v3.8H83.8z"/>
			<path class="st0" d="M86.2,37.3H91V38h-4v2.3h3.2v0.8H87v2.6h4.1v0.8h-4.9V37.3z"/>
			<path class="st0" d="M93,42.4c0.1,1,0.9,1.5,2.1,1.5c1.1,0,1.7-0.4,1.7-1.3c0-1.2-1.2-1.3-2.1-1.5c-1-0.2-2.3-0.6-2.3-2.1
				c0-1.3,0.9-2,2.5-2c1.3,0,2.3,0.6,2.7,1.8l-0.8,0.2c-0.2-0.8-0.8-1.3-1.9-1.3c-1.1,0-1.6,0.5-1.6,1.2c0,1,0.9,1.2,2,1.4
				c1.1,0.2,2.4,0.6,2.4,2.1c0,1.4-1,2.1-2.6,2.1c-1.2,0-2.6-0.4-2.9-2L93,42.4z"/>
			<path class="st0" d="M105.7,42.5c-0.6,1.4-1.9,2.2-3.4,2.2c-2.1,0-3.7-1.5-3.7-3.8c0-2.3,1.6-3.8,3.7-3.8c1.7,0,2.8,0.9,3.3,2
				l-0.8,0.2c-0.3-0.5-1-1.4-2.5-1.4c-1.7,0-2.9,1.1-2.9,3c0,1.8,1.2,3,2.8,3c1.2,0,2.2-0.6,2.6-1.6L105.7,42.5z"/>
			<path class="st0" d="M112,41.1h-4v3.4h-0.8v-7.3h0.8v3.1h4v-3.1h0.9v7.3H112V41.1z"/>
			<path class="st0" d="M118,37.1c2.1,0,3.8,1.5,3.8,3.8c0,2.3-1.7,3.8-3.8,3.8c-2.1,0-3.8-1.5-3.8-3.8
				C114.2,38.6,115.9,37.1,118,37.1z M118,43.9c1.6,0,2.9-1.1,2.9-3c0-1.8-1.3-3-2.9-3c-1.6,0-2.9,1.1-2.9,3
				C115.1,42.7,116.4,43.9,118,43.9z"/>
			<path class="st0" d="M126.6,37.1c2.1,0,3.8,1.5,3.8,3.8c0,2.3-1.7,3.8-3.8,3.8c-2.1,0-3.8-1.5-3.8-3.8
				C122.8,38.6,124.5,37.1,126.6,37.1z M126.6,43.9c1.6,0,2.9-1.1,2.9-3c0-1.8-1.3-3-2.9-3c-1.6,0-2.9,1.1-2.9,3
				C123.7,42.7,125,43.9,126.6,43.9z"/>
			<path class="st0" d="M131.8,37.3h0.8v6.5h3.8v0.8h-4.7V37.3z"/>
		</g>
		<g>
			<path class="st0" d="M61.7,22.3V10.1h4.1V21c0,4,0.9,7.2,5.2,7.2s5.2-3.2,5.2-7.2V10.1h4.1v12.2c0,5.8-3,9.6-9.3,9.6
				S61.7,28.1,61.7,22.3"/>
			<path class="st0" d="M83.6,20.8c0-6.7,4.7-11.1,11.1-11.1c2.3,0,4.8,0.5,6.4,1.3l-0.5,3.7c-1.9-0.7-3.6-1.2-5.9-1.2
				c-4.4,0-6.6,3.1-6.6,7.4c0,4.3,2.2,7.4,6.6,7.4c2.3,0,4.1-0.5,5.9-1.2l0.5,3.7c-1.6,0.8-4,1.3-6.4,1.3
				C88.3,31.9,83.6,27.5,83.6,20.8"/>
			<polygon class="st0" points="104.4,32 104.4,9.7 108.9,9.7 108.9,28.1 118.8,28.1 118.8,32 			"/>
			<polygon class="st0" points="122.1,32 122.1,9.7 126.5,9.7 126.5,28.1 136.4,28.1 136.4,32 			"/>
		</g>
	</g>
</g>
</svg>
